<svg width="1920" height="1080" viewBox="0 0 1920 1080" fill="none" xmlns="http://www.w3.org/2000/svg">
<rect width="1920" height="1080" fill="url(#paint0_linear_2_3)"/>
<g clip-path="url(#clip0_2_3)">
<path d="M1326.54 277.937C1302.62 254.19 1270.34 240.595 1236.52 240.019C1202.7 239.443 1169.97 251.932 1145.25 274.852C1144.01 276.021 1143.02 277.429 1142.35 278.989C1141.67 280.55 1141.33 282.23 1141.33 283.927C1141.33 285.625 1141.67 287.305 1142.35 288.865C1143.02 290.425 1144.01 291.833 1145.25 293.003L1160.97 308.976C1163.1 311.074 1165.91 312.34 1168.9 312.54C1171.89 312.74 1174.86 311.861 1177.25 310.065C1192.33 298.108 1211.48 292.401 1230.7 294.137C1249.92 295.874 1267.72 304.92 1280.37 319.384C1293.03 333.848 1299.57 352.609 1298.61 371.744C1297.66 390.881 1289.28 408.909 1275.25 422.06C1171.67 524.796 1033.44 236.734 719.678 385.212C714.383 387.738 709.672 391.324 705.844 395.748C702.015 400.171 699.151 405.334 697.432 410.911C695.714 416.489 695.179 422.359 695.861 428.151C696.543 433.944 698.427 439.534 701.395 444.567L755.242 536.867C760.817 546.494 769.997 553.546 780.784 556.486C791.571 559.426 803.091 558.018 812.837 552.568L814.118 551.842L813.111 552.568L836.699 539.499C863.294 523.107 888.434 504.494 911.848 483.865C914.166 481.768 917.16 480.56 920.294 480.461C923.429 480.362 926.495 481.375 928.943 483.32C930.268 484.422 931.342 485.789 932.095 487.332C932.849 488.875 933.265 490.56 933.317 492.274C933.368 493.988 933.054 495.694 932.395 497.279C931.736 498.865 930.747 500.293 929.493 501.471C904.85 523.507 878.295 543.339 850.138 560.736H849.315L825.454 573.987C815.376 579.604 804.008 582.543 792.45 582.518C780.481 582.56 768.71 579.47 758.326 573.559C747.942 567.648 739.31 559.124 733.301 548.848L682.379 461.629C585.014 530.424 525.224 662.565 557.587 829.922C558.119 832.742 559.623 835.291 561.842 837.13C564.061 838.968 566.856 839.981 569.747 839.996H627.16C630.322 840.077 633.398 838.959 635.759 836.867C638.12 834.776 639.589 831.87 639.867 828.742C642.565 808.469 652.592 789.861 668.082 776.381C683.571 762.902 703.468 755.47 724.066 755.47C744.665 755.47 764.562 762.902 780.052 776.381C795.542 789.861 805.57 808.469 808.266 828.742C808.624 831.718 810.069 834.461 812.326 836.452C814.584 838.441 817.498 839.54 820.517 839.542H876.65C879.664 839.522 882.567 838.414 884.821 836.428C887.074 834.442 888.524 831.71 888.901 828.742C891.599 808.469 901.625 789.861 917.115 776.381C932.605 762.902 952.502 755.47 973.101 755.47C993.699 755.47 1013.6 762.902 1029.09 776.381C1044.57 789.861 1054.6 808.469 1057.3 828.742C1057.68 831.71 1059.13 834.442 1061.38 836.428C1063.63 838.414 1066.54 839.522 1069.55 839.542H1125.32C1128.58 839.543 1131.72 838.267 1134.05 835.991C1136.37 833.715 1137.7 830.622 1137.75 827.38C1139.03 749.33 1160.24 659.661 1220.67 614.736C1430.03 459.27 1374.99 326.039 1326.54 277.937ZM1113.07 512.726L1073.12 492.85C1073.11 488.604 1074.2 484.426 1076.29 480.718C1078.37 477.009 1081.37 473.891 1085.02 471.662C1088.66 469.433 1092.81 468.167 1097.09 467.984C1101.36 467.8 1105.61 468.707 1109.43 470.616C1113.25 472.526 1116.52 475.375 1118.91 478.891C1121.31 482.409 1122.76 486.477 1123.12 490.707C1123.49 494.939 1122.76 499.192 1121 503.062C1119.24 506.932 1116.51 510.29 1113.07 512.817V512.726Z" fill="white"/>
</g>
<defs>
<linearGradient id="paint0_linear_2_3" x1="0" y1="0" x2="1801.31" y2="1250.91" gradientUnits="userSpaceOnUse">
<stop stop-color="#209BC4"/>
<stop offset="1" stop-color="#4DC9C0"/>
</linearGradient>
<clipPath id="clip0_2_3">
<rect width="822.516" height="600" fill="white" transform="translate(548.742 240)"/>
</clipPath>
</defs>
</svg>
